<svg width="17" height="22" viewBox="0 0 17 22" fill="none" xmlns="http://www.w3.org/2000/svg">
<rect x="0.199997" y="5.19995" width="16.8" height="16.8" rx="2" fill="#FED330"/>
<path d="M14.9 5.62H3.56C0.200004 5.62 -0.220005 1 3.55999 1C7.59199 1 12.38 1 14.9 1" stroke="#FED330" stroke-width="1.5" stroke-linecap="round" stroke-linejoin="round"/>
<path d="M0.199997 3.1001V7.3001L2.3 6.4601L0.199997 3.1001Z" fill="#FED330"/>
<path d="M5.645 16L4.97 15.025H4.93H4.225V16H3.415V12.5H4.93C5.24 12.5 5.50833 12.5517 5.735 12.655C5.965 12.7583 6.14167 12.905 6.265 13.095C6.38833 13.285 6.45 13.51 6.45 13.77C6.45 14.03 6.38667 14.255 6.26 14.445C6.13667 14.6317 5.96 14.775 5.73 14.875L6.515 16H5.645ZM5.63 13.77C5.63 13.5733 5.56667 13.4233 5.44 13.32C5.31333 13.2133 5.12833 13.16 4.885 13.16H4.225V14.38H4.885C5.12833 14.38 5.31333 14.3267 5.44 14.22C5.56667 14.1133 5.63 13.9633 5.63 13.77ZM8.60676 12.5C8.91676 12.5 9.18509 12.5517 9.41176 12.655C9.64176 12.7583 9.81842 12.905 9.94176 13.095C10.0651 13.285 10.1268 13.51 10.1268 13.77C10.1268 14.0267 10.0651 14.2517 9.94176 14.445C9.81842 14.635 9.64176 14.7817 9.41176 14.885C9.18509 14.985 8.91676 15.035 8.60676 15.035H7.90176V16H7.09176V12.5H8.60676ZM8.56176 14.375C8.80509 14.375 8.99009 14.3233 9.11676 14.22C9.24342 14.1133 9.30676 13.9633 9.30676 13.77C9.30676 13.5733 9.24342 13.4233 9.11676 13.32C8.99009 13.2133 8.80509 13.16 8.56176 13.16H7.90176V14.375H8.56176Z" fill="white"/>
<rect x="12" y="9" width="1" height="5" rx="0.5" fill="white"/>
<rect x="15" y="11" width="1" height="5" rx="0.5" transform="rotate(90 15 11)" fill="white"/>
</svg>
