<svg width="37" height="37" viewBox="0 0 37 37" fill="none" xmlns="http://www.w3.org/2000/svg">
<circle cx="18.0369" cy="18.0369" r="18.0369" fill="#ECEFFE"/>
<path d="M11.7891 11.4544L12.0397 13.3852C11.7502 13.9985 11.2139 14.7386 10.9819 15.032C10.7035 15.1456 10.0299 15.4068 9.56223 15.5431C8.97767 15.7135 8.67148 16.3097 8.5323 16.764C8.39312 17.2183 8.36528 18.1837 8.5323 19.0639C8.66591 19.7681 9.12614 20.1523 9.33955 20.2564C9.54368 20.3416 10.1412 20.5858 10.8984 20.8811C11.2547 21.2218 11.7149 22.1967 11.9005 22.6415C11.817 23.039 11.6277 23.9646 11.5386 24.4871C11.4273 25.1401 12.151 25.9068 13.4315 26.645C14.4559 27.2356 15.1017 27.0614 15.2965 26.9005L16.7718 25.7364H19.2771C19.6018 26.0109 20.3516 26.6336 20.7524 26.9289C21.5875 27.1277 22.0607 26.9573 23.2298 26.3327C24.1651 25.8329 24.4546 24.8562 24.4825 24.4303C24.3804 23.976 24.1763 22.9822 24.1763 22.6415C24.2431 22.3235 24.8351 21.3543 25.1227 20.9095L27.0434 20.0861C27.2568 19.8211 27.6781 19.0753 27.6558 18.2121C27.628 17.1331 27.2939 15.9974 26.8485 15.7419C26.4032 15.4863 25.3732 15.2876 25.0114 15.0036C24.7219 14.7765 24.2227 13.7354 24.0092 13.2432C24.0835 12.7605 24.2542 11.6929 24.3433 11.2841C24.2319 10.8298 24.0092 10.3755 22.7845 9.58047C21.5597 8.78545 20.5576 9.04099 20.4462 9.15456C20.3349 9.26814 19.3328 10.2619 18.9987 10.3755C18.5533 10.4891 17.4956 10.4228 17.0224 10.3755C16.5863 10.0158 15.6973 9.27949 15.6305 9.21135C15.547 9.12617 15.1573 8.89902 14.3501 9.09777C13.5428 9.29653 12.7077 9.94958 12.2345 10.3755C11.856 10.7162 11.7799 11.2368 11.7891 11.4544Z" fill="#002851"/>
<ellipse cx="18.0208" cy="18.0192" rx="3.36818" ry="3.43562" fill="#ECEFFE"/>
</svg>
